<?xml version="1.0" standalone="no"?>
<!DOCTYPE svg PUBLIC "-//W3C//DTD SVG 20010904//EN"
 "http://www.w3.org/TR/2001/REC-SVG-20010904/DTD/svg10.dtd">
<svg version="1.0" xmlns="http://www.w3.org/2000/svg"
 width="300.000000pt" height="300.000000pt" viewBox="0 0 300.000000 300.000000"
 preserveAspectRatio="xMidYMid meet">
<metadata>
Created by potrace 1.10, written by Peter Selinger 2001-2011
</metadata>
<g transform="translate(0.000000,300.000000) scale(0.100000,-0.100000)"
fill="#000000" stroke="none">
<path d="M955 2783 c-92 -21 -169 -104 -194 -208 -17 -75 -18 -81 -25 -210
-18 -317 -43 -417 -129 -508 -36 -39 -77 -68 -134 -96 -45 -23 -86 -41 -92
-41 -5 0 -38 -13 -73 -28 -35 -16 -83 -37 -108 -47 -25 -10 -63 -26 -85 -36
-22 -9 -57 -23 -77 -30 -21 -7 -38 -17 -38 -21 0 -5 17 -1 38 7 20 9 129 55
242 101 113 47 228 99 256 115 99 56 171 160 194 278 5 29 15 128 20 220 17
278 37 361 103 429 45 48 81 63 141 63 128 0 255 -113 385 -343 18 -32 35 -58
38 -58 6 0 -45 91 -101 178 -115 179 -242 262 -361 235z"/>
<path d="M1085 2697 c16 -13 14 -15 -26 -22 l-44 -8 55 -7 c54 -7 113 -30 125
-50 3 -5 12 -10 18 -10 14 1 -41 50 -95 85 -39 26 -65 35 -33 12z"/>
<path d="M852 2677 c-12 -13 -29 -43 -37 -68 -17 -50 -35 -170 -25 -164 4 2
10 31 13 63 7 62 27 120 59 165 24 33 19 35 -10 4z"/>
<path d="M927 2608 c-59 -60 -80 -111 -101 -258 -8 -52 -15 -75 -18 -60 -7 39
-21 -105 -15 -153 4 -27 2 -36 -4 -26 -6 10 -9 7 -9 -14 0 -18 4 -26 11 -22
10 7 8 -26 -7 -99 -9 -41 -50 -115 -88 -155 -44 -48 -113 -90 -136 -84 -12 3
-22 -1 -26 -11 -3 -9 -10 -13 -15 -10 -5 3 -23 -1 -41 -9 -18 -8 -102 -43
-186 -77 -84 -35 -155 -67 -158 -71 -3 -5 -12 -9 -21 -9 -25 0 -101 -39 -107
-55 -6 -17 -5 -17 328 124 131 55 259 112 284 127 110 65 181 166 201 289 6
33 17 139 25 236 20 235 51 316 141 370 22 14 25 19 12 19 -10 0 -42 -24 -70
-52z"/>
<path d="M1121 2591 l23 -18 -39 -7 c-70 -14 -124 -60 -161 -141 -13 -27 -24
-55 -24 -62 0 -6 -4 -14 -9 -17 -5 -4 -7 4 -4 16 4 16 2 20 -5 13 -5 -5 -15
-77 -22 -160 -6 -82 -15 -170 -19 -195 -5 -25 -7 -58 -6 -75 2 -33 -23 -91
-63 -143 -39 -52 -171 -130 -194 -116 -7 4 -8 2 -4 -4 5 -8 0 -12 -12 -12 -11
0 -25 -7 -33 -16 -7 -8 -21 -13 -31 -10 -11 2 -22 -2 -25 -10 -3 -9 -13 -12
-24 -9 -12 4 -21 1 -25 -10 -4 -9 -13 -14 -20 -11 -8 3 -14 1 -14 -5 0 -6 -4
-7 -10 -4 -5 3 -10 1 -10 -5 0 -7 -7 -10 -15 -6 -8 3 -15 1 -15 -5 0 -6 -4 -8
-9 -5 -5 3 -12 -1 -15 -10 -3 -9 -13 -14 -21 -10 -19 7 -78 -18 -68 -29 5 -4
0 -5 -10 -2 -12 5 -16 3 -11 -4 4 -7 0 -9 -14 -5 -12 4 -26 1 -36 -9 -9 -9
-26 -18 -38 -20 -41 -8 -79 -28 -71 -36 10 -10 214 71 208 82 -3 3 5 7 18 7
23 0 227 87 356 150 128 63 206 151 237 264 7 29 21 118 29 198 20 184 32 244
60 300 27 54 48 74 99 95 43 18 79 14 141 -18 36 -18 38 -18 25 -2 -18 22
-115 85 -131 85 -6 0 -1 -8 12 -19z"/>
<path d="M905 2518 c-7 -18 -16 -51 -19 -73 -5 -30 -1 -24 12 20 10 33 21 66
26 73 4 6 4 12 1 12 -3 0 -12 -15 -20 -32z"/>
<path d="M1168 2499 c17 -18 15 -27 -5 -32 -10 -3 -2 -5 17 -6 19 -1 55 -13
79 -26 53 -30 36 -6 -23 34 -48 32 -89 50 -68 30z"/>
<path d="M1105 2448 c-36 -20 -67 -52 -87 -93 -18 -35 -22 -37 -28 -20 -8 24
-14 -5 -30 -145 -26 -236 -53 -380 -72 -380 -5 0 -7 -4 -4 -8 3 -5 -9 -26 -26
-48 l-32 -39 33 30 c18 17 48 62 67 100 34 71 38 89 73 363 16 123 50 193 116
233 32 20 24 26 -10 7z"/>
<path d="M1220 2397 c0 -7 -12 -18 -27 -24 -24 -8 -22 -9 19 -5 37 4 56 -1 94
-22 58 -32 40 -8 -25 33 -53 35 -61 37 -61 18z"/>
<path d="M1127 2337 c-15 -12 -36 -35 -47 -52 -16 -24 -20 -26 -20 -11 0 11
-2 17 -4 15 -8 -8 -17 -60 -37 -214 -22 -177 -39 -257 -64 -305 -17 -32 -17
-34 -1 -21 45 37 76 142 96 316 16 139 36 207 77 255 39 46 39 49 0 17z"/>
<path d="M1239 2321 c7 -5 10 -14 7 -20 -5 -7 4 -11 24 -11 37 0 65 -13 104
-49 l29 -26 -18 27 c-19 31 -112 88 -141 88 -15 0 -16 -2 -5 -9z"/>
<path d="M1163 2245 c-19 -19 -38 -33 -43 -30 -9 5 -24 -73 -40 -205 -6 -52
-18 -122 -27 -155 -8 -33 -16 -65 -17 -71 -1 -7 -8 -19 -14 -27 -9 -10 -9 -17
-3 -21 13 -9 55 75 69 139 7 28 17 91 23 140 14 125 34 189 70 230 40 45 27
45 -18 0z"/>
<path d="M1272 2230 c-7 -11 -19 -20 -27 -20 -8 0 -15 -4 -15 -10 0 -5 -12
-13 -26 -16 -33 -9 -40 -29 -59 -181 -18 -144 -29 -191 -55 -245 -14 -28 -15
-38 -5 -42 22 -8 55 92 72 214 20 154 39 217 72 251 47 47 68 47 166 0 21 -9
-24 29 -56 48 -42 26 -51 26 -67 1z"/>
<path d="M1293 2173 c28 -7 20 -19 -23 -33 -37 -12 -42 -18 -55 -64 -7 -28
-17 -88 -20 -134 -10 -124 -28 -179 -71 -223 -20 -21 -49 -39 -63 -41 -23 -3
-27 -9 -33 -53 -6 -41 -4 -52 11 -66 17 -16 20 -16 49 3 18 11 32 25 32 31 0
5 -9 2 -20 -8 -21 -19 -47 -14 -57 11 -7 18 91 119 107 109 22 -13 53 89 70
225 16 128 25 162 55 190 33 31 89 31 119 0 20 -21 20 -22 1 -13 -17 7 -65 9
-110 4 -6 0 -15 -9 -21 -18 -10 -17 4 -18 255 -15 297 3 322 0 396 -56 67 -51
105 -124 105 -203 0 -72 -16 -114 -66 -169 -60 -66 -102 -83 -222 -88 -141 -6
-146 1 -57 83 39 35 85 69 103 75 61 22 82 106 38 157 -23 26 -30 28 -128 34
-56 4 -143 7 -192 8 -78 1 -87 -1 -82 -16 14 -37 25 -103 20 -117 -4 -11 -1
-16 10 -16 20 0 20 -2 0 72 -8 33 -13 62 -10 65 10 10 39 -63 39 -99 l0 -38
77 0 c89 0 113 -14 83 -47 -66 -72 -174 -166 -183 -157 -7 7 18 36 75 88 47
43 85 82 85 87 0 11 -337 12 -344 1 -2 -4 33 -48 79 -97 l84 -90 1 -57 c0 -69
-11 -78 -98 -78 l-60 0 1 -36 c1 -24 -5 -39 -16 -45 -24 -14 -21 -24 8 -27 14
-1 25 4 25 11 0 6 5 29 11 50 9 32 13 36 25 26 16 -13 11 -44 -13 -71 -13 -15
-12 -18 6 -27 28 -16 28 -16 41 40 12 50 35 73 49 50 8 -12 64 58 60 75 -6 32
2 46 22 41 13 -4 36 4 60 20 35 23 42 24 69 13 50 -21 196 -8 261 22 109 51
172 152 172 278 0 60 -24 112 -77 168 -82 87 -118 100 -298 108 -98 4 -124 8
-135 22 -13 15 -13 15 -4 -5 15 -31 14 -35 -9 -23 -15 8 -20 8 -20 -1 0 -8 -5
-7 -17 2 -15 12 -16 12 -8 -1 6 -12 5 -13 -5 -3 -9 8 -18 9 -25 3 -8 -6 -29 4
-64 30 -38 28 -62 40 -85 39 -17 -1 -23 -3 -13 -6z m221 -347 c2 -51 -17 -45
-31 11 -17 66 -16 71 8 46 13 -13 22 -35 23 -57z m114 -3 c-4 -36 -26 -40 -38
-8 -22 57 -23 73 -3 77 23 5 45 -33 41 -69z m-63 23 c17 -43 14 -66 -6 -66
-11 0 -23 28 -34 78 -11 50 20 41 40 -12z m155 22 c0 -5 -4 -7 -8 -4 -5 3 -18
-3 -30 -14 -17 -16 -22 -17 -32 -5 -6 8 -9 18 -7 23 8 11 77 12 77 0z m46 -70
c-3 -13 -15 -38 -26 -56 l-20 -33 -36 37 c-26 25 -33 39 -26 46 11 11 104 38
111 32 2 -2 1 -13 -3 -26z m-216 -74 c0 -11 -103 -114 -114 -114 -19 0 -109
97 -102 109 7 11 216 16 216 5z m136 -15 c7 -13 -163 -178 -184 -179 -31 -1
-2 42 76 114 86 78 96 84 108 65z"/>
<path d="M713 1939 c-17 -38 -29 -69 -27 -69 7 0 67 130 63 135 -3 2 -18 -28
-36 -66z"/>
<path d="M1247 1888 c4 -41 0 -67 -20 -119 -18 -48 -22 -70 -15 -83 13 -23 16
-249 5 -296 -9 -36 -56 -124 -63 -118 -2 2 10 51 26 107 33 115 39 216 15 266
l-15 30 7 -35 c15 -72 -5 -202 -44 -290 -9 -19 -15 -41 -14 -48 4 -22 -20 -42
-50 -42 l-29 0 0 -90 c0 -68 -3 -92 -14 -96 -8 -3 -14 -15 -14 -27 0 -12 -12
-67 -26 -122 -20 -71 -28 -126 -28 -190 -1 -136 30 -196 127 -241 43 -20 64
-24 150 -23 l100 2 -80 9 c-44 4 -90 9 -102 9 -36 2 -98 63 -123 121 -50 115
-36 281 42 490 46 123 70 164 114 193 23 15 35 35 47 78 10 32 15 63 11 69
-10 15 -11 290 -1 311 6 14 21 17 88 17 77 0 79 1 75 23 -3 12 -8 43 -11 70
l-6 47 -61 0 c-42 0 -67 5 -79 16 -17 15 -17 13 -12 -38z m127 -20 c21 -66 21
-66 -49 -70 -66 -3 -69 -1 -65 37 3 34 20 45 67 45 26 0 45 -5 47 -12z"/>
<path d="M1917 1788 c-32 -11 -56 -22 -53 -25 7 -7 114 26 121 37 8 13 0 12
-68 -12z"/>
<path d="M900 1702 c-24 -11 -55 -35 -64 -50 -11 -18 17 -3 59 32 31 26 32 30
5 18z"/>
<path d="M983 1703 c-7 -2 -13 -10 -13 -17 0 -7 -10 -17 -22 -23 -12 -5 -17
-12 -11 -16 5 -3 25 9 43 28 32 33 32 40 3 28z"/>
<path d="M745 1609 c-66 -33 -97 -57 -53 -40 40 15 128 61 128 66 0 10 -16 4
-75 -26z"/>
<path d="M1140 1625 c-12 -15 -12 -17 -1 -10 38 22 -21 -213 -70 -278 l-21
-28 28 3 c26 3 29 10 56 103 21 74 28 117 26 164 -3 59 -4 63 -18 46z"/>
<path d="M632 1558 c-7 -7 -16 -13 -20 -13 -22 -2 -80 -30 -76 -37 3 -5 22 2
42 14 20 13 39 22 42 20 10 -4 40 10 40 19 0 13 -14 11 -28 -3z"/>
<path d="M433 1539 c-41 -26 -42 -31 -3 -16 17 6 30 15 30 20 0 4 5 5 10 2 6
-3 10 -1 10 4 0 16 -11 13 -47 -10z"/>
<path d="M1101 1540 c-1 -9 -6 -21 -12 -27 -7 -7 -25 -45 -41 -85 -16 -40 -39
-83 -50 -95 l-21 -23 29 0 c30 0 31 3 68 111 20 60 35 116 32 122 -3 7 -5 6
-5 -3z"/>
<path d="M250 1457 c0 -4 -4 -6 -9 -3 -11 7 -141 -48 -152 -65 -5 -8 -9 -11
-9 -6 0 4 -18 -2 -41 -13 -85 -44 -27 -29 102 26 140 60 166 74 130 71 -11 -1
-21 -5 -21 -10z"/>
<path d="M1010 1464 c0 -5 -14 -25 -30 -44 -16 -19 -30 -40 -30 -47 0 -7 -6
-16 -14 -20 -7 -4 -21 -23 -30 -41 -16 -31 -16 -35 0 -73 l18 -39 11 27 c9 23
12 25 18 10 4 -11 0 -25 -11 -36 -9 -10 -27 -35 -38 -56 -24 -43 -74 -75 -118
-75 -24 0 -28 -3 -23 -22 4 -13 -10 -65 -33 -127 -21 -58 -47 -137 -57 -176
-21 -85 -24 -243 -4 -298 17 -49 67 -106 106 -123 75 -31 218 -25 405 17 75
17 39 23 -52 9 -134 -22 -151 -22 -206 -10 -137 30 -213 192 -183 387 17 110
95 348 111 338 4 -2 19 4 33 15 23 18 27 19 35 5 6 -12 17 3 45 64 47 101 47
109 0 113 -31 2 -39 7 -41 26 -3 17 1 22 20 22 20 0 27 11 51 77 15 42 25 78
22 81 -3 3 -5 1 -5 -4z m-215 -461 c-9 -20 -21 -43 -27 -50 -6 -8 -15 -33 -18
-56 -4 -23 -15 -75 -24 -115 -44 -199 6 -366 126 -426 53 -27 52 -35 -2 -30
-51 4 -81 18 -113 50 -56 56 -62 78 -62 219 1 134 12 187 75 345 9 25 20 57
24 73 3 15 13 27 21 27 14 0 13 -4 0 -37z"/>
<path d="M911 1421 c-12 -16 -21 -36 -21 -44 0 -26 -28 -39 -94 -40 -49 -2
-71 -7 -95 -24 l-30 -23 -37 25 c-20 14 -44 25 -53 26 -63 3 -139 -4 -156 -15
-17 -11 -26 -11 -55 3 -19 9 -36 19 -38 22 -5 10 -143 -29 -163 -47 -19 -17
-19 -18 8 -46 15 -15 38 -28 52 -29 l26 -1 -26 -11 c-60 -27 -79 -70 -59 -132
16 -48 55 -58 85 -23 28 33 50 44 100 51 36 6 41 4 42 -14 2 -26 31 -59 51
-59 8 0 30 12 49 26 l34 26 39 -27 c29 -20 46 -26 65 -21 14 4 25 11 25 16 0
16 40 11 47 -6 3 -8 -10 -57 -30 -107 -82 -210 -106 -392 -67 -506 29 -88 81
-149 140 -165 23 -6 23 -6 5 5 -111 65 -158 194 -136 368 11 91 64 273 107
369 13 30 23 56 22 57 -71 39 -96 87 -79 146 6 21 26 49 43 64 27 23 39 26 82
23 28 -3 58 -7 66 -11 11 -5 22 12 47 73 17 44 30 80 28 80 -2 0 -13 -13 -24
-29z m-540 -124 c46 -35 50 -85 10 -129 -26 -29 -34 -32 -86 -32 -56 0 -57 0
-51 -27 6 -31 -13 -53 -38 -43 -11 4 -16 18 -16 44 0 64 6 70 67 70 63 0 93
13 93 39 0 30 -21 40 -90 43 -59 3 -65 5 -68 26 -3 21 -1 22 80 22 49 -1 89
-6 99 -13z m253 -13 c32 -33 33 -61 2 -107 l-25 -36 25 -16 c28 -18 31 -37 9
-55 -13 -11 -22 -8 -53 22 -20 20 -52 39 -71 43 -34 7 -34 7 -28 -24 5 -25 2
-33 -14 -42 -30 -16 -41 0 -37 57 l3 49 69 5 c76 6 101 24 80 58 -8 12 -29 18
-80 22 -62 5 -69 7 -72 28 -3 21 -1 22 81 22 78 0 86 -2 111 -26z"/>
<path d="M285 1407 c-11 -6 -26 -12 -33 -13 -32 -5 -213 -88 -234 -106 -13
-12 -16 -19 -8 -15 38 14 304 128 308 131 10 11 -16 13 -33 3z"/>
<path d="M1396 1336 c-3 -13 -12 -31 -20 -39 -13 -12 -13 -20 0 -56 33 -96
-39 -182 -138 -166 -39 7 -41 6 -35 -17 4 -13 0 -48 -8 -78 -22 -81 -21 -230
3 -283 32 -73 133 -139 190 -124 12 3 10 5 -6 6 -29 1 -92 33 -114 58 -10 10
-27 41 -40 68 -29 64 -31 210 -5 298 29 93 57 66 32 -30 -21 -81 -19 -208 4
-258 24 -53 70 -91 133 -110 105 -31 201 -18 608 80 398 96 475 110 785 145
69 8 62 8 -50 4 -130 -5 -253 -21 -395 -50 -104 -22 -95 -20 -192 -43 -49 -12
-125 -30 -170 -41 -46 -10 -130 -30 -188 -44 -133 -32 -149 -34 -240 -42 -136
-12 -218 20 -266 102 -20 34 -24 54 -24 120 1 43 6 107 13 141 12 61 13 63 60
87 l48 24 25 -27 c23 -25 28 -26 140 -26 l116 0 25 29 c14 17 29 40 34 53 11
28 26 30 34 3 11 -33 55 -80 77 -80 10 0 28 5 39 10 13 7 25 7 38 0 39 -21 94
-20 134 1 34 17 42 18 56 6 34 -29 41 -28 75 6 l34 35 28 -29 c31 -33 68 -38
96 -12 15 14 22 14 46 3 51 -24 104 -29 151 -13 31 10 46 12 54 4 26 -26 97 2
97 39 0 26 19 35 27 13 11 -31 46 -63 69 -63 13 0 32 12 44 27 20 25 21 38 18
129 -3 114 -18 144 -69 144 -30 0 -59 -31 -59 -62 0 -28 -25 -21 -37 11 -6 16
-22 36 -36 46 -24 15 -28 15 -50 0 -19 -12 -30 -13 -51 -5 -39 15 -100 12
-145 -6 -36 -14 -41 -14 -65 1 -34 23 -68 16 -84 -17 -16 -35 -22 -35 -56 1
-25 26 -34 29 -92 29 -79 0 -89 -11 -99 -110 -5 -48 -11 -68 -21 -68 -16 0
-15 -3 -18 79 -2 53 -7 67 -26 83 -12 10 -30 18 -40 18 -21 0 -50 -31 -50 -53
0 -31 -17 -26 -41 11 -47 73 -94 50 -154 -75 l-36 -74 -52 3 -52 3 -2 69 c-3
78 -21 116 -56 116 -13 0 -28 5 -34 11 -7 7 -12 3 -17 -15z m74 -126 l5 -95
60 0 c55 0 60 -2 63 -23 3 -22 2 -23 -85 -20 l-88 3 -3 118 c-3 118 -3 118 20
115 22 -3 23 -8 28 -98z m340 -7 c28 -60 52 -112 53 -118 1 -5 -9 -10 -23 -10
-21 0 -29 11 -61 84 l-38 85 -40 -87 c-31 -68 -44 -87 -60 -87 -31 0 -27 20
28 136 67 139 74 139 141 -3z m110 22 c0 -80 1 -85 26 -102 24 -15 29 -15 53
-2 25 14 26 19 29 102 3 85 3 87 27 87 25 0 25 -1 25 -91 0 -87 -1 -92 -29
-120 -24 -23 -38 -29 -73 -29 -80 1 -108 42 -108 159 0 80 0 81 25 81 25 0 25
-1 25 -85z m280 16 c30 -39 58 -70 62 -70 4 -1 4 31 1 70 l-6 71 29 -4 29 -3
3 -117 3 -118 -24 0 c-18 0 -38 19 -80 76 l-57 76 0 -75 c0 -75 -10 -95 -38
-78 -8 5 -17 171 -13 234 1 4 9 7 19 7 9 0 41 -31 72 -69z m330 56 c32 -16 40
-57 12 -57 -11 0 -32 6 -46 14 -34 17 -63 10 -82 -20 -23 -34 -14 -83 18 -107
25 -19 28 -19 52 -4 36 24 76 22 76 -2 0 -30 -39 -51 -93 -51 -42 0 -54 5 -82
33 -60 60 -54 155 13 191 33 19 99 20 132 3z m112 -39 l-4 -48 54 0 53 0 -3
50 c-4 50 -4 50 27 50 l31 0 0 -110 c0 -60 0 -113 0 -117 0 -5 -12 -8 -27 -8
-25 0 -28 4 -27 30 0 17 4 37 8 47 6 14 0 16 -51 13 l-58 -2 3 -37 c4 -43 -11
-66 -38 -59 -16 4 -20 14 -21 52 0 25 -1 79 -3 119 l-3 73 31 -3 c30 -3 31 -4
28 -50z m-134 -48 c17 -8 32 -17 32 -20 0 -9 -75 -37 -88 -32 -16 5 -16 44 0
60 7 7 15 11 18 9 3 -2 20 -10 38 -17z"/>
<path d="M734 1235 c-29 -44 6 -115 57 -115 29 0 69 39 69 69 0 63 -93 97
-126 46z m71 -84 l-27 -26 17 40 c9 22 20 47 23 55 5 10 8 5 10 -14 3 -21 -4
-36 -23 -55z"/>
<path d="M1210 1240 c-41 -41 -11 -113 48 -113 62 0 92 60 56 111 -20 29 -76
30 -104 2z m51 -53 c-11 -29 -31 -37 -31 -12 0 9 8 30 17 48 15 28 18 29 21
11 1 -11 -2 -32 -7 -47z"/>
<path d="M1127 1187 c-4 -10 -7 -33 -7 -51 0 -18 -13 -71 -29 -117 -89 -257
-50 -452 99 -497 141 -43 333 -18 821 107 357 91 559 130 682 131 31 0 57 4
57 8 0 10 -43 8 -190 -9 -128 -14 -227 -35 -610 -129 -434 -105 -480 -113
-615 -108 -131 6 -164 19 -205 85 -63 100 -65 273 -4 457 13 39 18 46 26 32 6
-11 2 -45 -13 -104 -32 -125 -32 -269 1 -335 37 -77 119 -118 230 -115 42 0
41 1 -17 9 -75 9 -112 28 -151 74 -69 84 -78 249 -23 411 13 39 15 57 7 62
-21 14 -39 42 -45 75 -6 26 -8 28 -14 14z"/>
<path d="M975 1133 c-3 -27 -21 -97 -40 -158 -48 -150 -57 -197 -57 -290 0
-167 77 -249 242 -256 71 -3 185 0 179 5 -2 2 -53 7 -114 10 -99 5 -113 8
-150 34 -25 18 -51 49 -70 87 -29 56 -30 64 -29 179 1 104 5 134 29 211 30 93
45 225 26 225 -5 0 -12 -21 -16 -47z m-36 -576 c6 -6 11 -17 11 -25 0 -9 -9
-3 -22 13 -15 19 -22 45 -24 84 l-3 56 13 -58 c7 -32 19 -64 25 -70z"/>
<path d="M885 1020 c-10 -22 -21 -37 -25 -35 -9 6 -54 -120 -76 -211 -22 -94
-15 -224 14 -280 27 -53 71 -90 125 -106 48 -14 252 -13 307 1 26 7 2 9 -95 9
-142 -1 -168 6 -216 59 -96 102 -104 288 -23 525 27 82 27 78 16 78 -5 0 -17
-18 -27 -40z m-64 -232 c-21 -136 10 -271 81 -341 35 -35 31 -44 -10 -23 -40
21 -79 69 -92 114 -18 65 -11 197 14 292 3 8 5 21 5 29 1 8 4 11 7 8 4 -4 2
-39 -5 -79z"/>
</g>
</svg>
